<svg width="192" height="192" viewBox="0 0 192 192" fill="none" xmlns="http://www.w3.org/2000/svg">
<g clip-path="url(#clip0_310_2)">
<path d="M57 75C66.9411 75 75 66.9411 75 57C75 47.0589 66.9411 39 57 39C47.0589 39 39 47.0589 39 57C39 66.9411 47.0589 75 57 75Z" fill="white"/>
<path d="M141 75C150.941 75 159 66.9411 159 57C159 47.0589 150.941 39 141 39C131.059 39 123 47.0589 123 57C123 66.9411 131.059 75 141 75Z" fill="white"/>
<path d="M57 159C66.9411 159 75 150.941 75 141C75 131.059 66.9411 123 57 123C47.0589 123 39 131.059 39 141C39 150.941 47.0589 159 57 159Z" fill="white"/>
<path d="M98 118C107.941 118 116 109.941 116 100C116 90.0589 107.941 82 98 82C88.0589 82 80 90.0589 80 100C80 109.941 88.0589 118 98 118Z" fill="white"/>
<path d="M141 159C150.941 159 159 150.941 159 141C159 131.059 150.941 123 141 123C131.059 123 123 131.059 123 141C123 150.941 131.059 159 141 159Z" fill="white"/>
</g>
<defs>
<clipPath id="clip0_310_2">
<rect width="192" height="192" fill="white"/>
</clipPath>
</defs>
</svg>
