<svg width="338" height="341" viewBox="0 0 338 341" fill="none" xmlns="http://www.w3.org/2000/svg">
<path d="M278.969 231.412C287.347 213.204 292.732 193.041 292.732 171.281C292.732 149.221 287.571 129.547 278.969 111.15M112.094 111.15H51.8814C50.0564 111.15 48.306 111.942 47.0155 113.352C45.725 114.761 45 116.673 45 118.667V223.896C45 225.889 45.725 227.801 47.0155 229.211C48.306 230.62 50.0564 231.412 51.8814 231.412H111.793C114.965 231.385 118.048 232.56 120.515 234.738L199.196 305.101C200.22 305.924 201.433 306.421 202.7 306.536C203.967 306.652 205.239 306.382 206.374 305.756C207.509 305.131 208.463 304.174 209.13 302.992C209.798 301.809 210.152 300.449 210.154 299.06V43.5027C210.152 42.114 209.798 40.7531 209.13 39.571C208.463 38.3889 207.509 37.432 206.374 36.8062C205.239 36.1805 203.967 35.9105 202.7 36.0261C201.433 36.1418 200.22 36.6386 199.196 37.4614L120.515 107.824C118.162 109.995 115.175 111.175 112.094 111.15Z" stroke="white" stroke-width="32" stroke-linecap="round" stroke-linejoin="round"/>
</svg>
