<svg width="338" height="341" viewBox="0 0 338 341" fill="none" xmlns="http://www.w3.org/2000/svg">
<g clip-path="url(#clip0_307_2)">
<path d="M168.5 61.5995V92.652C168.502 93.6238 168.871 94.5553 169.527 95.2428L190.589 117.292C191.08 117.806 191.705 118.156 192.385 118.299C193.066 118.441 193.771 118.369 194.413 118.092C195.054 117.814 195.603 117.344 195.989 116.741C196.375 116.137 196.582 115.428 196.583 114.701V46.5785C196.622 42.5116 195.61 38.5095 193.652 34.9964C191.694 31.4833 188.865 28.5903 185.464 26.6241C181.959 24.6491 177.99 23.7584 174.019 24.0561C170.049 24.3538 166.242 25.8276 163.041 28.3053C162.841 28.4512 162.648 28.6076 162.462 28.7739L134.431 52.7982C134.053 53.1237 133.743 53.5286 133.523 53.9867C133.303 54.4449 133.177 54.9463 133.153 55.4586C133.129 55.9709 133.208 56.4827 133.384 56.9613C133.56 57.4398 133.83 57.8743 134.177 58.237L149.14 73.9103C149.757 74.5559 150.581 74.938 151.452 74.9821C152.324 75.0263 153.179 74.7293 153.853 74.1491L168.5 61.5995ZM168.5 280.4L99.9854 221.676C94.9554 217.4 88.6675 215.076 82.1876 215.098H28.0833V126.902H72.5954C73.2894 126.9 73.9674 126.684 74.5438 126.279C75.1203 125.875 75.5693 125.301 75.8341 124.629C76.099 123.958 76.1677 123.219 76.0318 122.507C75.8958 121.794 75.5612 121.14 75.0703 120.627L54.0078 98.5777C53.351 97.891 52.4612 97.5045 51.5329 97.5028H21.0625C15.4764 97.5028 10.119 99.8259 6.16906 103.961C2.21908 108.096 0 113.704 0 119.552V222.448C0 228.296 2.21908 233.904 6.16906 238.039C10.119 242.174 15.4764 244.497 21.0625 244.497H82.2842L162.462 313.217C162.648 313.383 162.841 313.539 163.041 313.685C166.281 316.196 170.144 317.678 174.166 317.953C178.189 318.228 182.202 317.286 185.727 315.238C189.059 313.252 191.823 310.368 193.732 306.887C195.641 303.406 196.625 299.454 196.583 295.44V249.348C196.582 248.376 196.213 247.445 195.557 246.757L174.494 224.708C174.004 224.194 173.379 223.844 172.698 223.701C172.018 223.559 171.312 223.631 170.671 223.908C170.029 224.186 169.481 224.656 169.094 225.259C168.708 225.862 168.501 226.572 168.5 227.299V280.4ZM280.833 171C280.833 148.436 275.734 127.012 265.256 105.523C263.524 102.124 260.587 99.5725 257.077 98.4173C253.566 97.2622 249.763 97.5958 246.485 99.3464C243.207 101.097 240.716 104.125 239.549 107.778C238.382 111.432 238.632 115.419 240.244 118.881C248.66 136.144 252.75 153.195 252.75 171C252.75 173.45 252.659 175.94 252.478 178.469C252.403 179.523 252.546 180.582 252.897 181.573C253.249 182.564 253.8 183.464 254.514 184.211L271.768 202.282C272.214 202.752 272.774 203.087 273.388 203.251C274.001 203.415 274.646 203.402 275.253 203.213C275.86 203.025 276.408 202.668 276.837 202.181C277.266 201.693 277.561 201.094 277.692 200.445C279.768 190.78 280.822 180.906 280.833 171ZM337 171C337 123.971 325.521 93.929 307.003 60.6992C305.102 57.3862 302.03 54.9906 298.453 54.0311C294.877 53.0717 291.083 53.6255 287.894 55.5728C284.704 57.52 282.376 60.7039 281.412 64.4352C280.449 68.1665 280.928 72.1448 282.747 75.5088C299.324 105.257 308.917 130.42 308.917 171C308.917 192.893 306.029 210.394 300.694 226.72C300.265 228.021 300.194 229.423 300.488 230.764C300.783 232.106 301.432 233.334 302.361 234.309L317.078 249.706C317.485 250.133 317.986 250.449 318.536 250.626C319.087 250.803 319.671 250.835 320.236 250.72C320.802 250.604 321.332 250.345 321.779 249.965C322.226 249.585 322.577 249.095 322.8 248.539C331.813 226.013 337 202.154 337 171Z" fill="white"/>
<path d="M322.158 311.936L33 24" stroke="white" stroke-width="32" stroke-miterlimit="10" stroke-linecap="round"/>
</g>
<defs>
<clipPath id="clip0_307_2">
<rect width="338" height="341" fill="white"/>
</clipPath>
</defs>
</svg>
